<svg width="142" height="188" viewBox="0 0 142 188" fill="none" xmlns="http://www.w3.org/2000/svg">
<g clip-path="url(#clip0)">
<path fill-rule="evenodd" clip-rule="evenodd" d="M75.94 106.054V0H60.497V106.054H75.94Z" fill="white"/>
<path fill-rule="evenodd" clip-rule="evenodd" d="M49.151 0H57.346C57.346 49.166 56.085 61.143 48.521 75.641C40.958 90.139 19.841 104.478 1.87601 106.055V89.85C15.428 87.643 27.72 80.368 38.436 64.294C49.151 48.221 49.466 10.085 49.151 0Z" fill="white"/>
<path fill-rule="evenodd" clip-rule="evenodd" d="M87.286 0H79.092C79.092 49.166 80.353 61.143 87.916 75.641C95.48 90.139 116.597 104.478 134.562 106.055V89.85C121.01 87.643 108.718 80.368 98.002 64.294C87.286 48.22 86.972 10.085 87.286 0Z" fill="white"/>
<path fill-rule="evenodd" clip-rule="evenodd" d="M134.31 163.552V115.66H127.138V163.552H134.31Z" fill="white"/>
<path fill-rule="evenodd" clip-rule="evenodd" d="M30.812 115.66V122.833H40.76V163.552H47.933V122.833H57.881V115.66H30.812Z" fill="white"/>
<path fill-rule="evenodd" clip-rule="evenodd" d="M100.222 125.03V163.552H93.049V122.832C93.049 117.857 95.016 115.659 100.106 115.659H107.857C113.641 115.659 120.698 120.055 120.698 129.657C120.698 139.259 115.377 141.687 112.6 143.191C110.981 144.348 111.328 145.274 112.022 146.778L123.243 163.551L114.856 163.493L103.866 146.95C101.842 143.653 102.767 140.183 104.966 139.026C106.616 138.157 113.527 136.25 113.527 130.118C113.527 124.219 109.94 122.831 107.164 122.831H102.306C100.916 122.833 100.222 123.411 100.222 125.03Z" fill="white"/>
<path fill-rule="evenodd" clip-rule="evenodd" d="M77.085 120.403C75.813 116.007 73.151 115.66 71.301 115.66C69.45 115.66 66.789 116.007 65.517 120.403L53.37 163.552H60.774L64.129 151.522H78.473L81.828 163.552H89.231L77.085 120.403ZM66.095 144.581L71.301 126.419L76.507 144.581H66.095Z" fill="white"/>
<path fill-rule="evenodd" clip-rule="evenodd" d="M23.715 120.403C22.443 116.007 19.782 115.66 17.931 115.66C16.08 115.66 13.419 116.007 12.147 120.403L0 163.552H7.404L10.759 151.522H25.104L28.459 163.552H35.863L23.715 120.403ZM12.726 144.581L17.932 126.419L23.138 144.581H12.726Z" fill="white"/>
<path fill-rule="evenodd" clip-rule="evenodd" d="M2.778 174.958C1.573 176.271 0.970001 178.039 0.970001 180.263C0.970001 182.492 1.588 184.246 2.823 185.524C3.955 186.542 5.308 187.05 6.881 187.05C8.098 187.05 9.101 186.827 9.891 186.382C10.361 186.122 10.9 185.658 11.509 184.99L11.943 186.698H13.1V179.594H7.27V181.085H11.428C11.41 182.64 11.008 183.766 10.221 184.461C9.434 185.157 8.442 185.505 7.243 185.505C5.677 185.505 4.547 185.01 3.854 184.018C3.161 183.028 2.815 181.743 2.815 180.164C2.815 178.339 3.235 176.965 4.075 176.043C4.916 175.121 5.95 174.66 7.18 174.66C8.216 174.66 9.075 174.882 9.756 175.324C10.437 175.767 10.886 176.473 11.103 177.444H12.883C12.588 175.709 11.78 174.495 10.461 173.801C9.551 173.32 8.473 173.078 7.226 173.078C5.405 173.079 3.923 173.705 2.778 174.958Z" fill="white"/>
<path fill-rule="evenodd" clip-rule="evenodd" d="M38.901 173.421H36.867L31.869 186.698H33.713L35.15 182.72H40.401L41.748 186.698H43.718L38.901 173.421ZM35.666 181.257L37.808 175.392L39.824 181.257H35.666Z" fill="white"/>
<path fill-rule="evenodd" clip-rule="evenodd" d="M62.434 186.699V173.422H65.01L68.824 184.648L72.611 173.422H75.16V186.699H73.452V178.862C73.452 178.591 73.458 178.143 73.47 177.516C73.483 176.889 73.489 176.217 73.489 175.5L69.7 186.699H67.92L64.106 175.5V175.906C64.106 176.231 64.113 176.727 64.129 177.393C64.144 178.059 64.151 178.548 64.151 178.861V186.698H62.434V186.699Z" fill="white"/>
<path fill-rule="evenodd" clip-rule="evenodd" d="M95.189 186.699V173.421H104.869V175.048H96.943V179.08H104.272V180.616H96.943V185.117H105.005V186.699H95.189Z" fill="white"/>
<path fill-rule="evenodd" clip-rule="evenodd" d="M123.974 182.415H125.664C125.706 183.168 125.884 183.779 126.197 184.249C126.793 185.129 127.844 185.569 129.351 185.569C130.026 185.569 130.64 185.472 131.195 185.28C132.267 184.906 132.803 184.237 132.803 183.273C132.803 182.55 132.577 182.035 132.125 181.727C131.667 181.426 130.95 181.164 129.974 180.941L128.176 180.535C127 180.269 126.169 179.977 125.681 179.658C124.837 179.104 124.415 178.275 124.415 177.173C124.415 175.98 124.828 175.001 125.653 174.235C126.478 173.47 127.647 173.088 129.16 173.088C130.552 173.088 131.734 173.424 132.708 174.096C133.681 174.768 134.168 175.842 134.168 177.318H132.478C132.387 176.607 132.195 176.062 131.9 175.682C131.351 174.989 130.421 174.643 129.107 174.643C128.046 174.643 127.284 174.866 126.82 175.311C126.356 175.757 126.125 176.276 126.125 176.866C126.125 177.517 126.396 177.993 126.938 178.295C127.292 178.487 128.097 178.729 129.351 179.018L131.212 179.443C132.109 179.648 132.803 179.928 133.291 180.284C134.134 180.904 134.556 181.805 134.556 182.986C134.556 184.457 134.022 185.507 132.952 186.14C131.882 186.772 130.639 187.088 129.223 187.088C127.572 187.088 126.28 186.666 125.346 185.823C124.413 184.984 123.955 183.848 123.974 182.415Z" fill="white"/>
<path fill-rule="evenodd" clip-rule="evenodd" d="M141.337 109.602C141.071 109.139 140.707 108.776 140.243 108.512C139.779 108.248 139.284 108.116 138.759 108.116C138.236 108.116 137.742 108.248 137.277 108.512C136.812 108.776 136.448 109.139 136.183 109.602C135.919 110.065 135.787 110.562 135.787 111.092C135.787 111.632 135.925 112.134 136.199 112.599C136.473 113.065 136.839 113.424 137.295 113.68C137.75 113.936 138.238 114.063 138.759 114.063C139.28 114.063 139.768 113.936 140.225 113.68C140.682 113.424 141.047 113.065 141.323 112.599C141.597 112.134 141.735 111.632 141.735 111.092C141.734 110.562 141.602 110.065 141.337 109.602ZM140.936 112.374C140.702 112.768 140.392 113.073 140.004 113.289C139.617 113.504 139.202 113.612 138.759 113.612C138.316 113.612 137.901 113.504 137.514 113.289C137.127 113.073 136.818 112.768 136.584 112.374C136.352 111.979 136.235 111.553 136.235 111.093C136.235 110.642 136.347 110.22 136.571 109.827C136.796 109.434 137.104 109.126 137.499 108.901C137.893 108.676 138.313 108.565 138.759 108.565C139.205 108.565 139.625 108.676 140.019 108.901C140.414 109.126 140.722 109.434 140.947 109.827C141.171 110.22 141.283 110.641 141.283 111.093C141.284 111.552 141.169 111.979 140.936 112.374Z" fill="white"/>
<path fill-rule="evenodd" clip-rule="evenodd" d="M139.594 111.811C139.449 111.543 139.314 111.371 139.186 111.29C139.429 111.186 139.61 111.04 139.728 110.85C139.846 110.66 139.906 110.459 139.906 110.249C139.906 110.068 139.863 109.9 139.779 109.747C139.694 109.593 139.58 109.474 139.433 109.391C139.287 109.308 139.073 109.266 138.788 109.266H137.62V112.939H138.198V111.395H138.629C138.689 111.395 138.787 111.515 138.922 111.753L139.041 111.981L139.543 112.939H140.201L139.594 111.811ZM138.6 110.955H138.199V109.711H138.637C138.839 109.711 138.982 109.739 139.062 109.794C139.143 109.85 139.205 109.919 139.247 110.003C139.289 110.086 139.31 110.179 139.31 110.282C139.31 110.451 139.258 110.605 139.155 110.745C139.049 110.884 138.865 110.955 138.6 110.955Z" fill="white"/>
</g>
<defs>
<clipPath id="clip0">
<rect width="141.734" height="187.086" fill="white"/>
</clipPath>
</defs>
</svg>
