<svg id="Layer_1" data-name="Layer 1" xmlns="http://www.w3.org/2000/svg" viewBox="0 0 192.76 192.76"><defs><style>.cls-1{fill:#fff;}.cls-1,.cls-2{fill-rule:evenodd;}.cls-2{fill:#ed1b2e;}</style></defs><title>nintendo</title><polygon class="cls-1" points="0 0 192.76 0 192.76 192.76 0 192.76 0 0 0 0"/><path class="cls-2" d="M230.3,323.42c-14.66,0-24.47-10.4-24.47-23s9.83-23.12,24.45-23.09H368.47c14.63,0,24.45,10.48,24.45,23.09s-9.8,23-24.47,23Z" transform="translate(-203 -204)"/><path class="cls-1" d="M230.35,283c-11.61,0-18.74,7.79-18.74,17.39s7.08,17.42,18.74,17.38h138c11.66,0,18.75-7.78,18.75-17.38S380,283,368.4,283Z" transform="translate(-203 -204)"/><polygon class="cls-2" points="21.39 85.49 28.15 85.49 37.51 100.62 37.5 85.49 44.21 85.49 44.21 107.19 37.51 107.19 28.11 92.06 28.11 107.19 21.39 107.19 21.39 85.49 21.39 85.49"/><polygon class="cls-2" points="80.67 87.72 87.2 87.72 87.2 90.64 90.74 90.64 90.74 92.79 87.2 92.79 87.21 107.19 80.67 107.19 80.68 92.79 77.13 92.79 77.13 90.65 80.68 90.65 80.67 87.72 80.67 87.72"/><polygon class="cls-2" points="47.94 92.76 54.47 92.76 54.47 107.19 47.94 107.19 47.94 92.76 47.94 92.76"/><polygon class="cls-2" points="47.93 85.49 54.47 85.49 54.47 89.92 47.93 89.92 47.93 85.49 47.93 85.49"/><path class="cls-2" d="M367.9,303.86s0,2.18,0,3.05c0,2.3-1.35,3.25-2.66,3.25s-2.68-1-2.68-3.25c0-.87,0-3.11,0-3.11v-3c0-2.29,1.37-3.23,2.67-3.23s2.66.94,2.66,3.23c0,.88,0,2.5,0,3.08Zm-2.62-8.09c-5.27,0-9.53,3.63-9.53,8.11s4.26,8.1,9.53,8.1,9.53-3.63,9.53-8.1-4.26-8.11-9.53-8.11Z" transform="translate(-203 -204)"/><path class="cls-2" d="M347.18,289.49h6.44v21.7h-6.45v-.83a7.89,7.89,0,0,1-7.52.54,7.74,7.74,0,0,1-4.46-7.16,7.84,7.84,0,0,1,8.3-7.55,8.66,8.66,0,0,1,3.69,1.28v-8Zm.05,14.41v-2.58a2.57,2.57,0,1,0-5.12,0c0,.74,0,2.58,0,2.58s0,1.79,0,2.56a2.57,2.57,0,1,0,5.12,0V303.9Z" transform="translate(-203 -204)"/><path class="cls-2" d="M272.74,296.09c2.44-.06,7.39,1.53,7.36,7.25,0,1,0,7.85,0,7.85h-6.48v-9.48a2.89,2.89,0,0,0-3-2.66,3,3,0,0,0-3.1,2.66c0,.62,0,9.48,0,9.48h-6.48V296.76h6.48s0,1.16,0,1.52a7.91,7.91,0,0,1,5.2-2.18Z" transform="translate(-203 -204)"/><path class="cls-2" d="M325.77,296.09c2.43-.06,7.38,1.53,7.35,7.25,0,1,0,7.85,0,7.85h-6.49v-9.48a2.89,2.89,0,0,0-3-2.66,3,3,0,0,0-3.1,2.66c0,.62,0,9.48,0,9.48h-6.48V296.76h6.47s0,1.16,0,1.52a7.92,7.92,0,0,1,5.21-2.18Z" transform="translate(-203 -204)"/><path class="cls-2" d="M299.82,301.79a5.31,5.31,0,0,1,.43-2.83,2.68,2.68,0,0,1,2.29-1.32h0a2.66,2.66,0,0,1,2.29,1.32,5.41,5.41,0,0,1,.43,2.83Zm5.41,4.35s0,.07,0,.88c0,2.64-1.74,3.22-2.7,3.22s-2.73-.58-2.73-3.22c0-.8,0-3,0-3h12.29c0-4.48-4.32-8.19-9.63-8.19s-9.6,3.63-9.6,8.1,4.3,8.11,9.6,8.11c4.41,0,8.12-2.52,9.26-5.93Z" transform="translate(-203 -204)"/><path class="cls-2" d="M375.27,294.65h-.75v-4.94h1.88c1.17,0,1.74.43,1.74,1.41a1.29,1.29,0,0,1-1.28,1.36l1.4,2.17h-.83l-1.31-2.14h-.85v2.14Zm.89-2.77c.64,0,1.2-.05,1.2-.81s-.55-.72-1.07-.72h-1v1.53Z" transform="translate(-203 -204)"/><path class="cls-2" d="M371.82,292.17a4.34,4.34,0,1,1,4.35,4.29,4.28,4.28,0,0,1-4.35-4.29Zm4.35,3.58a3.57,3.57,0,1,0-3.49-3.58,3.46,3.46,0,0,0,3.49,3.58Z" transform="translate(-203 -204)"/></svg>