<?xml version="1.0" encoding="utf-8"?>
<!-- Generator: Adobe Illustrator 19.0.0, SVG Export Plug-In . SVG Version: 6.00 Build 0)  -->
<svg version="1.1" id="Layer_1" xmlns="http://www.w3.org/2000/svg" xmlns:xlink="http://www.w3.org/1999/xlink" x="0px" y="0px"
	 viewBox="0 0 500 500" style="enable-background:new 0 0 500 500;" xml:space="preserve">
<style type="text/css">
	.st0{fill:#FFFFFF;}
	.st1{fill:#0060A8;}
	.st2{fill:#231F20;}
</style>
<g id="XMLID_1_">
	<path id="XMLID_3_" class="st0" d="M247.3,300c6.7,6.5,15.8,10.5,25.9,10.5l159.2,0L398.1,208c-4.7-10.9-15.7-18.5-29-18.5
		c-13.2,0-24.4,7.9-28.9,18.7l-11.5,33.4l0-50.4l-55.6,0c-10.1,0-19.1,3.9-25.7,10.4l0-10.4h-56.9c-10.6,0-20.3,4.5-27,11.6v-11.7
		l-53.7,0c-23.2,0-42.2,18.1-42.2,42c0,11.1,4.8,21.1,12,28.6l-12.1,0v48.8l54.1,0c15.2,0,30.2-9.2,35.5-20.2l0.2-0.5
		c6,12.2,18.7,20.6,33.3,20.6l56.9,0L247.3,300"/>
	<path id="XMLID_4_" class="st1" d="M75.9,302.2l45.6,0c18.7,0,33.8-15.1,33.8-33.6c0-18.6-15.1-33.7-33.8-33.7l-11.8,0.1
		c-0.9,0-1.7-0.8-1.7-1.7s0.8-1.7,1.7-1.7l45.5,0l0-14.3h-45.5c-8.8,0-16,7.2-16,15.9c0,8.8,7.2,15.9,16,15.9l11.9,0.2
		c10.7,0,19.3,8.6,19.3,19.3c0,10.6-8.6,19.3-19.3,19.3H75.9L75.9,302.2"/>
	<path id="XMLID_5_" class="st1" d="M75.9,284.4h45.6c8.8,0,16-7.1,16-15.9c0-8.8-7.1-15.9-16-15.9l-11.9-0.1
		c-10.7,0-19.3-8.6-19.3-19.3c0-10.6,8.7-19.3,19.3-19.3l45.5,0l0-14.3h-45.5c-18.6,0-33.8,15.1-33.8,33.6
		c0,18.6,15.1,33.7,33.8,33.7l11.8,0c0.9,0,1.7,0.7,1.7,1.7c0,0.9-0.8,1.6-1.7,1.6l-45.5,0L75.9,284.4"/>
	<path id="XMLID_6_" class="st1" d="M190.6,287.9c-7.9,0-14.4-6.3-14.4-14.4V228c0-7.7,6.5-14.1,14.4-14.1l48.7,0v-14.3h-48.7
		c-15.8,0-28.7,12.8-28.7,28.6v45.4c0,15.8,12.8,28.6,28.7,28.6l48.5,0l0-14.3L190.6,287.9"/>
	<path id="XMLID_7_" class="st1" d="M179.7,228.1c0-6,4.9-10.9,10.9-10.9h48.7v14.3h-41.9c-3.4,0-3.4,3.3-3.4,3.3h35v14.3h-49.2
		L179.7,228.1"/>
	<path id="XMLID_8_" class="st1" d="M190.6,284.4c-6,0-10.9-4.9-10.9-10.9v-21h49.2v14.3h-35c0,3.4,3.4,3.4,3.4,3.4H239l0,14.2
		L190.6,284.4"/>
	<path id="XMLID_9_" class="st1" d="M273.4,287.8c-7.9,0-14.3-6.4-14.3-14.3v-45.4c0-7.9,6.4-14.3,14.3-14.3h47.1v-14.3h-47.2
		c-15.8,0-28.7,12.8-28.7,28.6v45.4c0,15.8,12.9,28.6,28.8,28.6l47.1,0v-67.3h-40.5v14.3h26.2v38.7L273.4,287.8"/>
	<path id="XMLID_10_" class="st1" d="M262.4,273.5c0,6,4.9,11,10.9,11h29.4v-32H280v14.3h8.5l0,3.4H280c-1.8,0-3.3-1.5-3.3-3.4
		l-0.1-32c0,0,0-3.3,3.4-3.4h40.5l0-14.3l-47.1,0c-6,0-10.9,4.9-10.9,10.9L262.4,273.5"/>
	<path id="XMLID_11_" class="st1" d="M364.7,217c0.6-1.8,2.4-3.1,4.4-3.1c2,0,3.8,1.3,4.4,3.1l22.9,67.6h-33.5l0-15.9h11.2l-5-15
		l-16.4,48.4h-16.9L364.7,217"/>
	<path id="XMLID_12_" class="st1" d="M401.1,287.8H363v14.3h57.9L390.8,213c-2.6-8.7-11.3-15.1-21.6-15.1c-10.3,0-19,6.4-21.7,15.1
		l-30.4,89.2h15.2l29.5-86.7c1.2-2.9,4-4.9,7.3-4.9c3.3,0,6.1,2,7.4,4.9L401.1,287.8"/>
	<path id="XMLID_15_" class="st2" d="M410,210.9c2.7,0,5.2-1.1,7.1-2.9c1.9-1.9,3-4.4,3-7.1c0-2.7-1.1-5.2-3-7.1
		c-1.9-1.9-4.4-2.9-7.1-2.9c-5.5,0-10.1,4.5-10.1,10c0,2.7,1.1,5.2,3,7.1C404.8,209.8,407.3,210.9,410,210.9 M401.3,200.8
		c0-2.3,0.9-4.5,2.5-6.1c1.6-1.6,3.8-2.5,6.1-2.5c2.3,0,4.5,0.9,6.1,2.5c1.6,1.6,2.5,3.8,2.5,6.1c0,4.8-3.9,8.6-8.7,8.6
		c-2.3,0-4.5-0.9-6.1-2.5C402.2,205.3,401.3,203.1,401.3,200.8z"/>
	<path id="XMLID_18_" class="st2" d="M407.4,201.7v4.7H406v-11.1h4.1c1.6,0,2.5,0,3.3,0.7c0.8,0.6,1.2,1.6,1.2,2.6
		c0,2.6-2.1,2.9-2.7,3.1l3.1,4.8h-1.8l-3.1-4.7H407.4 M407.4,200.4h3c0.5,0,0.9,0,1.4-0.1c1-0.2,1.4-1,1.4-1.8c0-0.3,0-1-0.7-1.6
		c-0.6-0.5-1.3-0.5-2.2-0.5h-2.9V200.4z"/>
</g>
</svg>
