<svg data-v-423bf9ae="" xmlns="http://www.w3.org/2000/svg" viewBox="0 0 420.85716254231687 163" class="iconAbove"><!----><!----><!----><g data-v-423bf9ae="" id="86efe241-a489-4423-9d07-d8544cb04a81" fill="white" transform="matrix(6.122449456230433,0,0,6.122449456230433,-0.000003848062732458857,91.18366999499045)"><path d="M3.64 1.93L3.64 1.93L3.66 1.93L3.66 1.93Q5.85 1.93 6.34 3.36L6.34 3.36L6.34 3.36Q6.57 3.89 6.57 4.85L6.57 4.85L4.98 5.07L4.96 5.03L4.96 5.00L4.96 5.00Q4.96 3.84 4.18 3.62L4.18 3.62L4.18 3.62Q3.94 3.55 3.60 3.53L3.60 3.53L3.60 3.53Q2.75 3.53 2.50 4.44L2.50 4.44L2.50 4.44Q2.36 5.05 2.36 5.88L2.36 5.88L2.36 6.64L2.36 6.64Q2.36 7.98 2.39 8.65L2.39 8.65L2.80 8.65L2.80 10.02L4.74 10.02L4.74 7.68L3.51 7.68L3.51 6.43L7.22 6.43L7.22 6.71L6.73 6.71L6.73 8.16L5.74 8.16L5.74 8.61L6.23 8.61L6.23 11.39L0.93 11.39L0.93 9.91L0.33 9.91L0.33 9.78L0.59 9.78L0.59 9.63L0.93 9.63L0.93 9.08L0 9.08L0 7.90L0.44 7.90L0.44 7.90Q0.42 7.38 0.42 7.29L0.42 7.29L0.42 7.29Q0.42 4.18 0.77 3.53L0.77 3.53L0.77 3.53Q0.86 3.13 1.33 2.64L1.33 2.64L1.33 2.64Q2.02 1.93 3.64 1.93ZM2.54 8.52L2.54 8.09L2.63 8.09L2.63 8.52L2.54 8.52ZM6.52 8.67L6.52 8.67L6.52 8.67Q6.62 8.71 6.63 8.76L6.63 8.76L6.63 8.82L6.63 8.82Q6.63 8.85 6.57 8.89L6.57 8.89L6.57 8.89Q6.58 8.91 6.58 8.93L6.58 8.93L6.62 8.93L6.62 8.90L6.70 8.90L6.70 8.92L6.70 8.92Q6.70 9.00 6.67 9.00L6.67 9.00L6.67 9.00Q6.67 9.02 6.75 9.11L6.75 9.11L6.65 9.11L6.60 9.08L6.60 9.08Q6.54 9.13 6.47 9.13L6.47 9.13L6.47 9.13Q6.36 9.13 6.34 8.98L6.34 8.98L6.34 8.98Q6.36 8.91 6.42 8.89L6.42 8.89L6.42 8.89Q6.41 8.80 6.41 8.76L6.41 8.76L6.41 8.76Q6.41 8.71 6.52 8.67ZM6.49 8.79L6.49 8.79L6.49 8.79Q6.50 8.82 6.50 8.84L6.50 8.84L6.50 8.84Q6.53 8.84 6.55 8.79L6.55 8.79L6.55 8.79Q6.55 8.76 6.52 8.76L6.52 8.76L6.52 8.76Q6.49 8.76 6.49 8.79ZM6.55 9.00L6.47 8.93L6.44 8.98L6.44 9.00L6.44 9.00Q6.44 9.02 6.49 9.05L6.49 9.05L6.49 9.05Q6.55 9.02 6.55 9.00L6.55 9.00ZM6.52 9.37L6.52 9.37L6.52 9.37Q6.62 9.41 6.63 9.45L6.63 9.45L6.63 9.52L6.63 9.52Q6.63 9.54 6.57 9.58L6.57 9.58L6.57 9.58Q6.58 9.62 6.58 9.63L6.58 9.63L6.62 9.63L6.62 9.60L6.70 9.60L6.70 9.62L6.70 9.62Q6.70 9.70 6.67 9.70L6.67 9.70L6.67 9.70Q6.67 9.71 6.75 9.81L6.75 9.81L6.65 9.81L6.60 9.78L6.60 9.78Q6.54 9.83 6.47 9.83L6.47 9.83L6.47 9.83Q6.36 9.83 6.34 9.68L6.34 9.68L6.34 9.68Q6.36 9.62 6.42 9.58L6.42 9.58L6.42 9.58Q6.41 9.50 6.41 9.45L6.41 9.45L6.41 9.45Q6.41 9.41 6.52 9.37ZM6.49 9.49L6.49 9.49L6.49 9.49Q6.50 9.52 6.50 9.54L6.50 9.54L6.50 9.54Q6.53 9.54 6.55 9.49L6.55 9.49L6.55 9.49Q6.55 9.45 6.52 9.45L6.52 9.45L6.52 9.45Q6.49 9.46 6.49 9.49ZM3.10 9.49L3.10 9.49L3.10 9.49Q3.32 9.52 3.32 9.68L3.32 9.68L3.32 9.73L3.32 9.73Q3.30 9.94 3.10 9.94L3.10 9.94L3.09 9.94L3.09 9.94Q2.89 9.94 2.89 9.70L2.89 9.70L2.89 9.70Q2.95 9.49 3.10 9.49ZM3.48 9.57L3.48 9.50L3.83 9.50L3.83 9.60L3.73 9.60L3.73 9.91L3.73 9.91Q3.73 9.94 3.69 9.94L3.69 9.94L3.64 9.94L3.64 9.94Q3.61 9.94 3.61 9.91L3.61 9.91L3.61 9.60L3.51 9.60L3.51 9.60Q3.48 9.60 3.48 9.57L3.48 9.57ZM3.01 9.70L3.01 9.70L3.01 9.78L3.01 9.78Q3.01 9.80 3.08 9.84L3.08 9.84L3.15 9.84L3.15 9.84Q3.21 9.84 3.22 9.71L3.22 9.71L3.22 9.71Q3.22 9.63 3.14 9.58L3.14 9.58L3.12 9.58L3.12 9.58Q3.01 9.58 3.01 9.70ZM6.47 9.63L6.47 9.63L6.44 9.68L6.44 9.70L6.44 9.70Q6.44 9.72 6.49 9.75L6.49 9.75L6.49 9.75Q6.55 9.72 6.55 9.70L6.55 9.70L6.55 9.70Q6.48 9.63 6.47 9.63ZM6.50 10.07L6.50 10.07L6.50 10.07Q6.58 10.07 6.63 10.15L6.63 10.15L6.63 10.22L6.63 10.22Q6.63 10.25 6.57 10.28L6.57 10.28L6.57 10.28Q6.58 10.32 6.58 10.33L6.58 10.33L6.62 10.33L6.62 10.30L6.70 10.30L6.70 10.32L6.70 10.32Q6.70 10.40 6.67 10.40L6.67 10.40L6.67 10.40Q6.67 10.41 6.75 10.51L6.75 10.51L6.65 10.51L6.60 10.48L6.60 10.48Q6.54 10.53 6.47 10.53L6.47 10.53L6.47 10.53Q6.36 10.53 6.34 10.38L6.34 10.38L6.34 10.38Q6.36 10.32 6.42 10.28L6.42 10.28L6.41 10.17L6.41 10.15L6.41 10.15Q6.41 10.12 6.50 10.07ZM6.49 10.19L6.49 10.19L6.49 10.19Q6.50 10.22 6.50 10.23L6.50 10.23L6.50 10.23Q6.53 10.23 6.55 10.19L6.55 10.19L6.55 10.19Q6.55 10.15 6.52 10.15L6.52 10.15L6.52 10.15Q6.49 10.16 6.49 10.19ZM6.55 10.40L6.47 10.33L6.44 10.38L6.44 10.40L6.44 10.40Q6.44 10.42 6.49 10.45L6.49 10.45L6.49 10.45Q6.55 10.42 6.55 10.40L6.55 10.40ZM6.50 10.77L6.50 10.77L6.50 10.77Q6.58 10.77 6.63 10.86L6.63 10.86L6.63 10.92L6.63 10.92Q6.63 10.94 6.57 10.99L6.57 10.99L6.57 10.99Q6.58 11.01 6.58 11.03L6.58 11.03L6.62 11.03L6.62 11.00L6.70 11.00L6.70 11.01L6.67 11.13L6.67 11.13Q6.69 11.13 6.75 11.21L6.75 11.21L6.65 11.21L6.60 11.18L6.60 11.18Q6.54 11.22 6.47 11.22L6.47 11.22L6.47 11.22Q6.36 11.22 6.34 11.08L6.34 11.08L6.34 11.08Q6.36 11.01 6.42 10.99L6.42 10.99L6.41 10.87L6.41 10.86L6.41 10.86Q6.41 10.82 6.50 10.77ZM6.49 10.88L6.49 10.88L6.49 10.88Q6.50 10.92 6.50 10.93L6.50 10.93L6.50 10.93Q6.53 10.93 6.55 10.88L6.55 10.88L6.55 10.88Q6.55 10.86 6.52 10.86L6.52 10.86L6.52 10.86Q6.49 10.86 6.49 10.88ZM6.55 11.09L6.47 11.03L6.44 11.08L6.44 11.09L6.44 11.09Q6.44 11.12 6.49 11.14L6.49 11.14L6.49 11.14Q6.55 11.12 6.55 11.09L6.55 11.09ZM2.29 11.73L2.29 11.53L4.31 11.53L4.31 11.73L2.29 11.73ZM8.64 7.57L10.32 1.96L11.97 1.96L11.97 1.96Q12.00 2.10 13.57 7.29L13.57 7.29L13.87 7.29L13.87 10.51L13.19 10.51L13.19 10.76L13.87 10.76L13.87 11.45L12.05 11.45L12.05 9.47L9.83 9.47L9.83 10.32L8.92 10.32L8.92 11.73L7.27 11.73L7.27 11.63L7.40 11.63L7.40 10.32L8.08 10.32L8.08 7.57L8.64 7.57ZM11.13 4.71L11.09 4.71L11.09 4.72L11.09 4.72Q10.88 5.89 10.27 8.40L10.27 8.40L11.81 8.40L11.81 7.29L11.68 7.29L11.68 7.29Q11.13 4.92 11.13 4.71L11.13 4.71ZM6.79 7.57L6.79 7.28L8.08 7.28L8.08 7.57L6.79 7.57ZM12.05 11.73L12.05 11.57L14.25 11.57L14.25 11.73L12.05 11.73ZM14.12 9.38L14.12 1.98L16.29 1.98L16.29 1.98Q16.65 3.29 17.77 7.23L17.77 7.23L18.63 7.23L18.63 7.23Q18.66 7.23 18.91 6.30L18.91 6.30L18.91 6.30Q19.45 4.44 20.13 1.98L20.13 1.98L22.13 1.98L22.13 8.31L22.24 8.31L22.24 9.46L21.64 9.46L21.64 9.67L22.24 9.67L22.24 11.73L20.54 11.73L20.54 10.97L20.75 10.97L20.75 8.63L20.38 8.63L20.38 7.46L20.17 7.46L20.16 7.53L19.97 7.53L19.97 9.19L19.38 9.19L19.38 9.97L18.87 9.97L18.87 11.29L17.67 11.29L17.67 10.45L16.93 10.45L16.93 9.30L16.49 9.30L16.49 8.09L16.24 8.09L16.24 8.09Q16.22 8.00 16.07 7.46L16.07 7.46L17.80 7.46L17.75 7.23L16.02 7.23L16.07 7.46L15.85 7.46L15.85 8.98L15.96 8.98L15.96 10.64L15.53 10.64L15.53 10.94L15.96 10.94L15.96 11.38L14.41 11.38L14.41 9.38L14.12 9.38ZM15.85 6.54L15.83 6.54L15.83 6.66L15.83 6.66Q15.83 6.81 15.85 7.23L15.85 7.23L16.01 7.23L16.01 7.23Q15.85 6.58 15.85 6.54L15.85 6.54ZM20.41 6.56L20.38 6.56L20.24 7.23L20.38 7.23L20.38 7.23Q20.41 6.82 20.41 6.62L20.41 6.62L20.41 6.56ZM15.83 7.23L15.29 7.23L15.29 7.46L15.83 7.46L15.83 7.23ZM20.22 7.23L18.66 7.23L18.61 7.46L20.16 7.46L20.16 7.46Q20.22 7.29 20.22 7.23L20.22 7.23ZM21.59 7.23L20.41 7.23L20.41 7.46L21.59 7.46L21.59 7.23ZM18.57 7.46L17.83 7.46L17.83 7.46Q17.94 7.99 17.99 7.99L17.99 7.99L18.18 7.99L18.18 8.87L18.49 8.87L18.49 7.51L18.57 7.51L18.57 7.46ZM22.24 9.67L22.24 9.46L23.24 9.46L23.24 9.67L22.24 9.67ZM13.97 11.61L13.97 11.46L15.71 11.46L15.71 11.61L13.97 11.61ZM23.68 6.80L23.68 2.00L28.47 2.00L28.47 3.60L28.47 3.60Q28.47 3.63 28.44 3.63L28.44 3.63L25.59 3.63L25.59 5.74L28.14 5.74L28.14 5.76L28.14 5.76Q28.14 5.84 28.12 6.79L28.12 6.79L28.12 6.79Q28.10 6.79 28.10 6.80L28.10 6.80L28.21 6.80L28.21 7.29L26.00 7.29L26.00 9.29L25.41 9.29L25.41 9.49L26.00 9.49L26.00 10.10L28.51 10.10L28.51 10.32L28.31 10.32L28.31 11.52L25.31 11.52L25.31 11.73L23.89 11.73L23.89 8.24L23.68 8.24L23.68 7.01L22.12 7.01L22.12 6.80L23.68 6.80ZM24.49 6.80L23.69 6.80L23.69 7.01L24.49 7.01L24.49 6.80ZM33.00 1.93L33.00 1.93L33.00 1.93Q35.11 1.93 35.77 3.41L35.77 3.41L35.77 3.41Q36.15 4.13 36.15 6.18L36.15 6.18L36.15 6.23L35.42 6.23L35.42 6.56L36.15 6.56L36.15 10.09L35.67 10.09L35.67 11.37L34.72 11.37L34.72 11.73L31.40 11.73L31.40 11.37L30.99 11.37L30.99 10.09L30.13 10.09L30.13 9.09L30.65 9.09L30.65 8.57L30.13 8.57L30.13 9.09L28.92 9.09L28.92 8.57L29.84 8.57L29.84 8.57Q29.83 7.37 29.83 6.73L29.83 6.73L29.83 5.90L29.83 5.90Q29.83 3.58 30.61 2.79L30.61 2.79L30.61 2.79Q31.34 1.93 33.00 1.93ZM31.81 5.31L31.81 5.31L31.82 5.31L31.81 5.34L31.81 6.23L31.07 6.23L31.07 6.56L31.81 6.56L31.81 6.56Q31.79 8.67 31.79 9.75L31.79 9.75L31.79 10.09L33.43 10.09L33.43 9.55L34.18 9.55L34.18 9.54L34.18 9.54Q34.18 8.54 34.17 6.75L34.17 6.75L34.17 6.75Q34.17 6.68 34.18 6.37L34.18 6.37L34.18 6.37Q34.18 4.44 33.95 4.00L33.95 4.00L33.95 4.00Q33.72 3.58 33.10 3.58L33.10 3.58L32.85 3.58L32.85 3.58Q32.12 3.58 31.94 4.22L31.94 4.22L31.94 4.22Q31.86 4.55 31.81 5.31ZM36.15 6.56L36.15 6.23L37.32 6.23L37.32 6.56L36.15 6.56ZM36.20 6.64L36.23 6.62L36.26 6.62L36.26 6.62Q36.31 6.62 36.33 6.82L36.33 6.82L36.33 6.82Q36.35 6.82 36.41 6.62L36.41 6.62L36.46 6.62L36.46 6.62Q36.50 6.62 36.52 6.83L36.52 6.83L36.54 6.83L36.59 6.62L36.67 6.62L36.67 6.64L36.67 6.64Q36.59 6.99 36.56 6.99L36.56 6.99L36.49 6.99L36.49 6.99Q36.49 6.97 36.44 6.78L36.44 6.78L36.43 6.78L36.43 6.78Q36.40 6.99 36.36 6.99L36.36 6.99L36.29 6.99L36.29 6.99Q36.24 6.78 36.20 6.64L36.20 6.64ZM36.26 7.11L36.26 7.11L36.33 7.11L36.33 7.11Q36.37 7.11 36.43 7.34L36.43 7.34L36.44 7.34L36.44 7.34Q36.44 7.31 36.50 7.11L36.50 7.11L36.62 7.11L36.62 7.49L36.54 7.49L36.54 7.29L36.52 7.29L36.52 7.29Q36.48 7.49 36.44 7.49L36.44 7.49L36.39 7.49L36.39 7.49Q36.35 7.33 36.35 7.31L36.35 7.31L36.33 7.31L36.33 7.31Q36.33 7.49 36.29 7.49L36.29 7.49L36.23 7.49L36.23 7.14L36.23 7.14Q36.24 7.11 36.26 7.11ZM36.21 7.60L36.21 7.60L36.28 7.60L36.28 7.60Q36.36 7.65 36.36 7.72L36.36 7.72L36.36 7.72Q36.37 7.72 36.46 7.60L36.46 7.60L36.52 7.60L36.52 7.64L36.43 7.78L36.43 7.78Q36.43 7.79 36.54 7.96L36.54 7.96L36.54 7.98L36.46 7.98L36.36 7.86L36.36 7.86Q36.31 7.98 36.28 7.98L36.28 7.98L36.20 7.98L36.20 7.98Q36.31 7.81 36.31 7.78L36.31 7.78L36.31 7.78Q36.21 7.63 36.21 7.60ZM36.26 8.09L36.26 8.09L36.36 8.09L36.36 8.09Q36.52 8.09 36.52 8.21L36.52 8.21L36.52 8.22L36.49 8.27L36.49 8.27Q36.52 8.27 36.54 8.33L36.54 8.33L36.54 8.39L36.54 8.39Q36.50 8.47 36.37 8.47L36.37 8.47L36.23 8.47L36.23 8.13L36.23 8.13Q36.24 8.09 36.26 8.09ZM36.43 8.18L36.33 8.18L36.33 8.24L36.43 8.24L36.43 8.18ZM33.79 8.54L33.79 8.18L33.89 8.18L33.89 8.31L34.00 8.31L34.00 8.21L34.00 8.21Q34.01 8.18 34.04 8.18L34.04 8.18L34.10 8.18L34.10 8.54L34.00 8.54L34.00 8.39L33.89 8.39L33.89 8.54L33.79 8.54ZM36.41 8.31L36.33 8.31L36.33 8.39L36.44 8.39L36.44 8.34L36.44 8.34Q36.44 8.31 36.41 8.31L36.41 8.31ZM36.26 8.59L36.26 8.59L36.48 8.59L36.48 8.59Q36.50 8.59 36.50 8.62L36.50 8.62L36.50 8.67L36.33 8.67L36.33 8.73L36.49 8.73L36.49 8.81L36.33 8.81L36.33 8.88L36.50 8.88L36.50 8.96L36.23 8.96L36.23 8.62L36.23 8.62Q36.24 8.59 36.26 8.59ZM33.79 8.75L33.79 8.67L34.06 8.67L34.06 8.70L34.06 8.70Q34.06 8.76 33.90 8.95L33.90 8.95L33.90 8.95Q34.08 8.95 34.08 8.98L34.08 8.98L34.08 9.03L33.77 9.03L33.77 8.96L33.77 8.96Q33.89 8.82 33.93 8.75L33.93 8.75L33.79 8.75ZM32.07 9.14L32.07 9.14L32.07 9.14Q32.21 9.14 32.23 9.36L32.23 9.36L32.23 9.36Q32.23 9.52 32.03 9.54L32.03 9.54L32.03 9.54Q31.87 9.50 31.87 9.36L31.87 9.36L31.87 9.36Q31.87 9.14 32.07 9.14ZM33.89 9.16L33.89 9.16L33.98 9.16L33.98 9.16Q33.98 9.20 34.12 9.52L34.12 9.52L34.04 9.52L34.04 9.52Q34.00 9.52 34.00 9.45L34.00 9.45L33.89 9.45L33.89 9.45Q33.85 9.45 33.85 9.52L33.85 9.52L33.76 9.52L33.76 9.50L33.76 9.50Q33.79 9.44 33.89 9.16ZM31.97 9.29L31.97 9.29L31.97 9.36L31.97 9.36Q31.97 9.45 32.07 9.45L32.07 9.45L32.07 9.45Q32.14 9.44 32.14 9.36L32.14 9.36L32.14 9.29L32.14 9.29Q32.14 9.26 32.07 9.22L32.07 9.22L32.03 9.22L32.03 9.22Q32.01 9.22 31.97 9.29ZM33.92 9.29L33.92 9.29L33.90 9.37L33.97 9.37L33.97 9.37Q33.95 9.29 33.92 9.29ZM32.03 9.63L32.03 9.63L32.03 9.63Q32.14 9.63 32.20 9.73L32.20 9.73L32.20 9.78L32.12 9.78L32.12 9.78Q32.12 9.71 32.02 9.71L32.02 9.71L31.97 9.78L31.97 9.84L31.97 9.84Q31.97 9.95 32.07 9.95L32.07 9.95L32.07 9.95Q32.08 9.95 32.15 9.86L32.15 9.86L32.22 9.86L32.22 9.86Q32.22 10.00 32.03 10.03L32.03 10.03L32.03 10.03Q31.87 9.98 31.87 9.84L31.87 9.84L31.87 9.84Q31.89 9.63 32.03 9.63ZM37.15 1.96L37.15 1.96L39.14 1.96L39.14 1.96Q39.18 1.96 39.79 3.53L39.79 3.53L39.79 3.53Q39.83 3.59 41.04 6.62L41.04 6.62L41.56 6.62L41.56 1.96L43.30 1.96L43.30 7.51L43.50 7.51L43.50 9.67L42.79 9.67L42.79 10.08L43.50 10.08L43.50 11.37L40.88 11.37L40.88 9.73L40.41 9.73L40.41 9.73Q39.47 7.44 39.14 6.56L39.14 6.56L39.14 4.92L38.90 4.92L38.90 9.93L38.50 9.93L38.50 11.66L36.87 11.66L36.87 7.94L37.16 7.94L37.16 7.92L37.16 7.92Q37.15 3.09 37.15 1.96ZM41.01 6.62L40.09 6.62L40.09 6.98L41.17 6.98L41.17 6.98Q41.04 6.62 41.01 6.62L41.01 6.62ZM42.36 6.62L41.57 6.62L41.57 6.98L41.19 6.98L41.19 6.98Q41.54 7.85 41.60 8.11L41.60 8.11L41.62 8.11L41.62 8.07L41.62 8.07Q41.57 7.18 41.57 6.98L41.57 6.98L42.36 6.98L42.36 6.62ZM40.88 11.73L40.88 11.55L44.04 11.55L44.04 11.73L40.88 11.73ZM45.59 7.57L47.27 1.96L48.92 1.96L48.92 1.96Q48.95 2.10 50.52 7.29L50.52 7.29L50.82 7.29L50.82 10.51L50.14 10.51L50.14 10.76L50.82 10.76L50.82 11.45L49 11.45L49 9.47L46.78 9.47L46.78 10.32L45.87 10.32L45.87 11.73L44.22 11.73L44.22 11.63L44.35 11.63L44.35 10.32L45.03 10.32L45.03 7.57L45.59 7.57ZM48.08 4.71L48.04 4.71L48.04 4.72L48.04 4.72Q47.83 5.89 47.22 8.40L47.22 8.40L48.75 8.40L48.75 7.29L48.62 7.29L48.62 7.29Q48.08 4.92 48.08 4.71L48.08 4.71ZM43.74 7.57L43.74 7.28L45.03 7.28L45.03 7.57L43.74 7.57ZM49 11.73L49 11.57L51.19 11.57L51.19 11.73L49 11.73ZM50.91 6.33L50.91 1.94L52.80 1.94L52.80 7.12L51.91 7.12L51.91 7.39L52.80 7.39L52.80 8.36L52.80 8.36Q52.80 9.69 53.27 9.91L53.27 9.91L53.27 9.91Q53.51 10.06 53.87 10.06L53.87 10.06L54.45 10.06L54.45 8.34L54.96 8.34L54.96 1.94L56.83 1.94L56.83 7.96L56.16 7.96L56.16 8.39L56.83 8.39L56.83 8.39Q56.82 8.61 56.82 8.72L56.82 8.72L56.82 10.64L55.84 10.64L55.84 11.73L51.46 11.73L51.46 10.38L51.06 10.38L51.06 6.33L50.91 6.33ZM52.80 7.39L52.80 7.12L53.87 7.12L53.87 7.39L52.80 7.39ZM56.93 3.57L56.93 1.93L62.67 1.93L62.67 3.57L60.77 3.57L60.77 10.34L61.63 10.34L61.63 10.54L60.77 10.54L60.77 11.29L60.26 11.29L60.26 11.55L60.62 11.55L60.62 11.73L58.88 11.73L58.88 11.73Q58.84 11.73 58.84 11.70L58.84 11.70L58.84 3.57L56.93 3.57ZM60.76 10.34L60.09 10.34L60.09 10.54L60.76 10.54L60.76 10.34ZM65.58 1.96L65.58 1.96L65.58 1.96Q67.20 1.96 67.76 3.01L67.76 3.01L67.76 3.01Q68.14 3.80 68.14 4.56L68.14 4.56L68.13 4.56L68.13 4.56Q67.01 4.66 66.60 4.66L66.60 4.66L66.60 4.66Q66.60 4.12 66.27 3.75L66.27 3.75L66.27 3.75Q65.95 3.57 65.69 3.57L65.69 3.57L65.41 3.57L65.41 3.57Q64.72 3.57 64.57 4.11L64.57 4.11L64.57 4.11Q64.53 4.27 64.53 4.35L64.53 4.35L64.53 4.50L64.53 4.50Q64.53 5.26 65.34 5.61L65.34 5.61L65.34 5.61Q65.41 5.67 66.46 6.12L66.46 6.12L66.46 6.12Q67.02 6.38 67.50 6.76L67.50 6.76L67.50 6.77L65.78 6.77L65.78 6.97L68.04 6.97L68.04 7.24L68.33 7.24L68.33 10.21L67.77 10.21L67.77 11.73L63.42 11.73L63.42 10.21L62.40 10.21L62.40 9.18L62.98 9.18L62.98 8.83L62.40 8.83L62.40 8.59L64.39 8.59L64.39 10.21L66.42 10.21L66.42 7.77L64.90 7.77L64.90 6.97L63.01 6.97L63.01 6.77L63.92 6.77L63.92 6.76L63.92 6.76Q62.72 5.96 62.72 4.50L62.72 4.50L62.72 4.37L62.72 4.37Q62.72 3.14 63.47 2.51L63.47 2.51L63.47 2.51Q64.16 1.96 65.58 1.96ZM68.04 6.97L68.04 6.77L68.74 6.77L68.74 6.97L68.04 6.97ZM61.74 9.18L61.74 8.83L62.40 8.83L62.40 9.18L61.74 9.18Z"></path></g><!----><g data-v-423bf9ae="" id="ac6a27e7-3913-4f0b-89b4-db98bc9c0da5" transform="matrix(2.994410458179972,0,0,2.994410458179972,163.08943266912044,-1.9385669710569857)" stroke="none" fill="white"><path d="M17.572 23.933l4.106 7.095L32 13.189h-8.981V7.582L11.51.972 0 7.582v13.222l11.51 6.611 6.062-3.482zm10.96-8.744l-6.855 11.846-6.855-11.846h13.71z"></path></g><!----></svg>