<svg width="261" height="48" viewBox="0 0 261 48" fill="none" xmlns="http://www.w3.org/2000/svg">
<path d="M11.2228 47.9688C7.81156 47.9688 5.22778 46.888 3.47148 44.7264C1.8165 42.5311 0.989014 39.4069 0.989014 35.3539V12.7077C0.989014 8.58719 1.8165 5.49678 3.47148 3.4365C5.22778 1.24112 7.81156 0.143436 11.2228 0.143436C14.6003 0.143436 17.1504 1.24112 18.8729 3.4365C20.5616 5.49678 21.406 8.58719 21.406 12.7077V13.873H19.1262V12.7077C19.1262 10.411 18.8729 8.5703 18.3663 7.18553C17.8596 5.80075 17.2179 4.75373 16.4411 4.04445C15.6305 3.33517 14.7692 2.87921 13.8573 2.67656C12.9454 2.47391 12.0672 2.37259 11.2228 2.37259C10.3447 2.37259 9.43277 2.47391 8.48706 2.67656C7.54136 2.87921 6.6801 3.33517 5.90328 4.04445C5.12645 4.75373 4.48473 5.80075 3.9781 7.18553C3.4377 8.5703 3.1675 10.411 3.1675 12.7077V35.3539C3.1675 38.9003 3.85989 41.5516 5.24466 43.3079C6.52811 44.9629 8.52084 45.7904 11.2228 45.7904C13.8573 45.7904 15.8162 44.9629 17.0997 43.3079C18.4507 41.5516 19.1262 38.9003 19.1262 35.3539V29.1224H8.79104V26.8426H21.406V35.3539C21.406 39.4744 20.5616 42.5986 18.8729 44.7264C17.1504 46.888 14.6003 47.9688 11.2228 47.9688ZM31.4878 33.378L28.2454 47.9688H25.9656L29.7147 31.3515V31.1489L36.9594 0.143436H38.7326L49.625 47.9688H47.3959L44.1028 33.378H31.4878ZM43.5962 31.1489L37.8207 6.17228L32.0451 31.1489H43.5962ZM55.7552 9.26269V47.9688H53.526V0.143436H55.4512L67.7115 42.8013L79.9212 0.143436H81.897V47.9688H79.6679V9.26269L68.5728 47.9688H66.9009L55.7552 9.26269ZM104.493 2.37259H89.4964V22.9416H104.493V25.1201H89.4964V45.7904H104.493V47.9688H87.3179V0.143436H104.493V2.37259ZM118.931 47.9688C117.817 47.9688 116.652 47.8 115.436 47.4622C114.22 47.1245 113.122 46.4827 112.143 45.537C111.129 44.5913 110.319 43.3079 109.711 41.6867C109.103 40.0655 108.799 37.9208 108.799 35.2526V12.8091C108.799 8.72229 109.626 5.5981 111.281 3.4365C113.038 1.24112 115.588 0.143436 118.931 0.143436C122.343 0.143436 124.893 1.24112 126.581 3.4365C128.304 5.56433 129.165 8.68851 129.165 12.8091V35.2526C129.165 37.9208 128.861 40.0655 128.253 41.6867C127.612 43.3079 126.801 44.5913 125.821 45.537C124.842 46.4827 123.744 47.1245 122.528 47.4622C121.312 47.8 120.113 47.9688 118.931 47.9688ZM118.931 2.37259C116.229 2.37259 114.27 3.20007 113.054 4.85505C111.67 6.61135 110.977 9.26269 110.977 12.8091V35.2526C110.977 38.8665 111.67 41.5516 113.054 43.3079C114.338 44.9629 116.297 45.7904 118.931 45.7904C121.532 45.7904 123.525 44.9629 124.91 43.3079C126.227 41.6529 126.885 38.9678 126.885 35.2526V12.8091C126.885 9.16136 126.227 6.51003 124.91 4.85505C123.592 3.20007 121.6 2.37259 118.931 2.37259ZM136.258 7.03354V47.9688H133.978V0.143436H135.903L152.369 41.0787V0.143436H154.598V47.9688H152.774L136.258 7.03354ZM165.136 33.378L161.842 47.9688H159.563L163.362 31.3515V31.1489L170.556 0.143436H172.33L183.273 47.9688H180.993L177.751 33.378H165.136ZM177.244 31.1489L171.418 6.17228L165.693 31.1489H177.244ZM196.698 47.9182C195.584 47.9182 194.486 47.7493 193.405 47.4116C192.291 47.1076 191.26 46.5334 190.315 45.689C189.403 44.8447 188.66 43.6625 188.086 42.1427C187.478 40.589 187.174 38.6132 187.174 36.2151V0.0927734H189.352V36.2151C189.352 38.343 189.589 40.0317 190.061 41.2814C190.534 42.5311 191.125 43.4768 191.835 44.1185C192.544 44.794 193.338 45.2331 194.216 45.4357C195.06 45.6046 195.888 45.689 196.698 45.689C197.441 45.689 198.235 45.6046 199.079 45.4357C199.924 45.2331 200.701 44.794 201.41 44.1185C202.119 43.4768 202.71 42.5311 203.183 41.2814C203.656 40.0317 203.892 38.343 203.892 36.2151V0.0927734H206.122V36.2151C206.122 38.6132 205.818 40.589 205.21 42.1427C204.635 43.6625 203.892 44.8447 202.98 45.689C202.102 46.5334 201.089 47.1076 199.941 47.4116C198.792 47.7493 197.712 47.9182 196.698 47.9182ZM236.823 0.0927734V2.37259H225.323V47.9182H223.144V2.37259H211.694V0.0927734H236.823ZM250.705 47.9182C247.327 47.9182 244.777 46.8205 243.054 44.6251C241.366 42.5986 240.521 39.4744 240.521 35.2526V34.1886H242.7V35.2526C242.7 37.6168 242.97 39.4913 243.51 40.8761C244.017 42.2609 244.659 43.3079 245.436 44.0172C246.212 44.7264 247.074 45.1824 248.019 45.3851C248.965 45.5877 249.86 45.689 250.705 45.689C253.271 45.689 255.247 44.8109 256.632 43.0546C258.051 41.2645 258.76 38.782 258.76 35.6072C258.76 33.9184 258.456 32.4999 257.848 31.3515C257.274 30.1694 256.564 29.2068 255.72 28.4638C254.91 27.7207 254.048 27.1297 253.136 26.6906C252.224 26.2515 251.498 25.9138 250.958 25.6773L249.742 25.2214C249.033 24.9174 248.155 24.4952 247.107 23.9548C246.06 23.4144 245.064 22.6545 244.118 21.675C243.139 20.7293 242.295 19.5303 241.585 18.078C240.876 16.6256 240.521 14.8693 240.521 12.8091C240.521 9.19514 241.349 6.23983 243.004 3.94312C244.895 1.37622 247.462 0.0927734 250.705 0.0927734C254.082 0.0927734 256.666 1.20735 258.456 3.4365C260.145 5.56433 260.989 8.68851 260.989 12.8091V13.9236H258.76V12.8091C258.76 9.19514 258.067 6.51003 256.683 4.75373C255.399 3.1663 253.407 2.37259 250.705 2.37259C248.171 2.37259 246.212 3.33517 244.828 5.26035C243.409 7.2193 242.7 9.73554 242.7 12.8091C242.7 14.4978 242.987 15.9333 243.561 17.1154C244.135 18.2975 244.828 19.2939 245.638 20.1045C246.483 20.9151 247.344 21.5568 248.222 22.0296C249.134 22.5025 249.945 22.874 250.654 23.1442L251.768 23.6508C252.41 23.8873 253.238 24.2588 254.251 24.7654C255.298 25.2383 256.328 25.9307 257.341 26.8426C258.321 27.7883 259.182 28.9704 259.925 30.389C260.634 31.8075 260.989 33.5469 260.989 35.6072C260.989 39.1536 260.145 42.0413 258.456 44.2705C256.598 46.7023 254.014 47.9182 250.705 47.9182Z" fill="url(#paint0_linear)"/>
<defs>
<linearGradient id="paint0_linear" x1="-4.3146" y1="-7.19865" x2="231.325" y2="102.682" gradientUnits="userSpaceOnUse">
<stop stop-color="#D6A6FF"/>
<stop offset="1" stop-color="#E9FFF0"/>
</linearGradient>
</defs>
</svg>
