<svg data-v-fde0c5aa="" xmlns="http://www.w3.org/2000/svg" viewBox="0 0 300 300" class="iconAbove"><!----><defs data-v-fde0c5aa=""><!----></defs><rect data-v-fde0c5aa="" fill="#000000" x="0" y="0" width="300px" height="300px" class="logo-background-square"></rect><defs data-v-fde0c5aa=""><linearGradient data-v-fde0c5aa="" gradientTransform="rotate(25)" id="7e61fc99-75cc-45f6-b5e1-4a216891d901" x1="0%" y1="0%" x2="100%" y2="0%"><stop data-v-fde0c5aa="" offset="0%" stop-color="#D6A6FF" stop-opacity="1"></stop><stop data-v-fde0c5aa="" offset="100%" stop-color="#E9FFF0" stop-opacity="1"></stop></linearGradient></defs><g data-v-fde0c5aa="" id="5145118f-dc88-457b-a320-660158f2e38f" fill="url(#7e61fc99-75cc-45f6-b5e1-4a216891d901)" transform="matrix(5.0662510044056335,0,0,5.0662510044056335,19.29072485636349,177.61847219961302)"><path d="M2.16 10.50L2.16 10.50L2.16 10.50Q1.15 10.50 0.63 9.86L0.63 9.86L0.63 9.86Q0.14 9.21 0.14 8.01L0.14 8.01L0.14 3.54L0.14 3.54Q0.14 2.32 0.63 1.71L0.63 1.71L0.63 1.71Q1.15 1.06 2.16 1.06L2.16 1.06L2.16 1.06Q3.16 1.06 3.67 1.71L3.67 1.71L3.67 1.71Q4.17 2.32 4.17 3.54L4.17 3.54L4.17 3.77L3.72 3.77L3.72 3.54L3.72 3.54Q3.72 2.86 3.57 2.45L3.57 2.45L3.57 2.45Q3.42 2.04 3.19 1.83L3.19 1.83L3.19 1.83Q2.95 1.62 2.68 1.56L2.68 1.56L2.68 1.56Q2.41 1.50 2.16 1.50L2.16 1.50L2.16 1.50Q1.90 1.50 1.62 1.56L1.62 1.56L1.62 1.56Q1.34 1.62 1.11 1.83L1.11 1.83L1.11 1.83Q0.88 2.04 0.73 2.45L0.73 2.45L0.73 2.45Q0.57 2.86 0.57 3.54L0.57 3.54L0.57 8.01L0.57 8.01Q0.57 9.06 0.98 9.58L0.98 9.58L0.98 9.58Q1.36 10.07 2.16 10.07L2.16 10.07L2.16 10.07Q2.94 10.07 3.32 9.58L3.32 9.58L3.32 9.58Q3.72 9.06 3.72 8.01L3.72 8.01L3.72 6.78L1.68 6.78L1.68 6.33L4.17 6.33L4.17 8.01L4.17 8.01Q4.17 9.23 3.67 9.86L3.67 9.86L3.67 9.86Q3.16 10.50 2.16 10.50ZM6.16 7.62L5.52 10.50L5.07 10.50L5.81 7.22L5.81 7.18L5.81 7.18L7.24 1.06L7.59 1.06L9.74 10.50L9.30 10.50L8.65 7.62L6.16 7.62ZM8.55 7.18L7.41 2.25L6.27 7.18L8.55 7.18ZM10.95 2.86L10.95 2.86L10.95 10.50L10.51 10.50L10.51 1.06L10.89 1.06L13.31 9.48L15.72 1.06L16.11 1.06L16.11 10.50L15.67 10.50L15.67 2.86L13.48 10.50L13.15 10.50L10.95 2.86ZM20.57 1.50L17.61 1.50L17.61 5.56L20.57 5.56L20.57 5.99L17.61 5.99L17.61 10.07L20.57 10.07L20.57 10.50L17.18 10.50L17.18 1.06L20.57 1.06L20.57 1.50ZM23.42 10.50L23.42 10.50L23.42 10.50Q23.09 10.50 22.73 10.40L22.73 10.40L22.73 10.40Q22.37 10.30 22.08 10.02L22.08 10.02L22.08 10.02Q21.78 9.74 21.60 9.26L21.60 9.26L21.60 9.26Q21.42 8.78 21.42 7.99L21.42 7.99L21.42 3.56L21.42 3.56Q21.42 2.35 21.91 1.71L21.91 1.71L21.91 1.71Q22.43 1.06 23.42 1.06L23.42 1.06L23.42 1.06Q24.43 1.06 24.93 1.71L24.93 1.71L24.93 1.71Q25.44 2.34 25.44 3.56L25.44 3.56L25.44 7.99L25.44 7.99Q25.44 8.78 25.26 9.26L25.26 9.26L25.26 9.26Q25.07 9.74 24.78 10.02L24.78 10.02L24.78 10.02Q24.49 10.30 24.13 10.40L24.13 10.40L24.13 10.40Q23.77 10.50 23.42 10.50ZM23.42 1.50L23.42 1.50L23.42 1.50Q22.62 1.50 22.26 1.99L22.26 1.99L22.26 1.99Q21.85 2.51 21.85 3.56L21.85 3.56L21.85 7.99L21.85 7.99Q21.85 9.06 22.26 9.58L22.26 9.58L22.26 9.58Q22.64 10.07 23.42 10.07L23.42 10.07L23.42 10.07Q24.19 10.07 24.60 9.58L24.60 9.58L24.60 9.58Q24.99 9.09 24.99 7.99L24.99 7.99L24.99 3.56L24.99 3.56Q24.99 2.48 24.60 1.99L24.60 1.99L24.60 1.99Q24.21 1.50 23.42 1.50ZM26.84 2.42L26.84 2.42L26.84 10.50L26.39 10.50L26.39 1.06L26.77 1.06L30.02 9.14L30.02 1.06L30.46 1.06L30.46 10.50L30.10 10.50L26.84 2.42ZM32.54 7.62L31.89 10.50L31.44 10.50L32.19 7.22L32.19 7.18L32.19 7.18L33.61 1.06L33.96 1.06L36.12 10.50L35.67 10.50L35.03 7.62L32.54 7.62ZM34.93 7.18L33.78 2.25L32.65 7.18L34.93 7.18ZM38.77 10.49L38.77 10.49L38.77 10.49Q38.44 10.49 38.12 10.39L38.12 10.39L38.12 10.39Q37.79 10.30 37.51 10.05L37.51 10.05L37.51 10.05Q37.24 9.80 37.07 9.35L37.07 9.35L37.07 9.35Q36.89 8.89 36.89 8.18L36.89 8.18L36.89 1.05L37.32 1.05L37.32 8.18L37.32 8.18Q37.32 8.81 37.46 9.18L37.46 9.18L37.46 9.18Q37.60 9.55 37.81 9.74L37.81 9.74L37.81 9.74Q38.02 9.94 38.28 10.00L38.28 10.00L38.28 10.00Q38.53 10.05 38.77 10.05L38.77 10.05L38.77 10.05Q38.99 10.05 39.24 10.00L39.24 10.00L39.24 10.00Q39.49 9.94 39.70 9.74L39.70 9.74L39.70 9.74Q39.91 9.55 40.05 9.18L40.05 9.18L40.05 9.18Q40.19 8.81 40.19 8.18L40.19 8.18L40.19 1.05L40.63 1.05L40.63 8.18L40.63 8.18Q40.63 8.89 40.45 9.35L40.45 9.35L40.45 9.35Q40.28 9.80 40.01 10.05L40.01 10.05L40.01 10.05Q39.75 10.30 39.41 10.39L39.41 10.39L39.41 10.39Q39.07 10.49 38.77 10.49ZM46.69 1.05L46.69 1.05L46.69 1.50L44.42 1.50L44.42 10.49L43.99 10.49L43.99 1.50L41.73 1.50L41.73 1.05L46.69 1.05ZM49.43 10.49L49.43 10.49L49.43 10.49Q48.43 10.49 47.92 9.84L47.92 9.84L47.92 9.84Q47.42 9.24 47.42 7.99L47.42 7.99L47.42 7.78L47.85 7.78L47.85 7.99L47.85 7.99Q47.85 8.69 48.01 9.10L48.01 9.10L48.01 9.10Q48.16 9.51 48.39 9.72L48.39 9.72L48.39 9.72Q48.62 9.93 48.90 9.99L48.90 9.99L48.90 9.99Q49.18 10.05 49.43 10.05L49.43 10.05L49.43 10.05Q50.19 10.05 50.60 9.53L50.60 9.53L50.60 9.53Q51.02 9.00 51.02 8.06L51.02 8.06L51.02 8.06Q51.02 7.56 50.84 7.22L50.84 7.22L50.84 7.22Q50.67 6.87 50.42 6.65L50.42 6.65L50.42 6.65Q50.18 6.43 49.91 6.30L49.91 6.30L49.91 6.30Q49.64 6.17 49.48 6.10L49.48 6.10L49.24 6.01L49.24 6.01Q49.03 5.92 48.72 5.76L48.72 5.76L48.72 5.76Q48.41 5.60 48.13 5.31L48.13 5.31L48.13 5.31Q47.84 5.03 47.63 4.60L47.63 4.60L47.63 4.60Q47.42 4.17 47.42 3.56L47.42 3.56L47.42 3.56Q47.42 2.49 47.91 1.81L47.91 1.81L47.91 1.81Q48.47 1.05 49.43 1.05L49.43 1.05L49.43 1.05Q50.43 1.05 50.96 1.71L50.96 1.71L50.96 1.71Q51.46 2.34 51.46 3.56L51.46 3.56L51.46 3.78L51.02 3.78L51.02 3.56L51.02 3.56Q51.02 2.49 50.61 1.97L50.61 1.97L50.61 1.97Q50.23 1.50 49.43 1.50L49.43 1.50L49.43 1.50Q48.68 1.50 48.27 2.07L48.27 2.07L48.27 2.07Q47.85 2.65 47.85 3.56L47.85 3.56L47.85 3.56Q47.85 4.06 48.02 4.41L48.02 4.41L48.02 4.41Q48.19 4.76 48.43 5.00L48.43 5.00L48.43 5.00Q48.68 5.24 48.94 5.38L48.94 5.38L48.94 5.38Q49.21 5.52 49.42 5.60L49.42 5.60L49.64 5.70L49.64 5.70Q49.83 5.77 50.13 5.92L50.13 5.92L50.13 5.92Q50.44 6.06 50.74 6.33L50.74 6.33L50.74 6.33Q51.03 6.61 51.25 7.03L51.25 7.03L51.25 7.03Q51.46 7.45 51.46 8.06L51.46 8.06L51.46 8.06Q51.46 9.11 50.96 9.77L50.96 9.77L50.96 9.77Q50.41 10.49 49.43 10.49Z"></path></g><defs data-v-fde0c5aa=""><linearGradient data-v-fde0c5aa="" gradientTransform="rotate(25)" id="40d5b9d5-7483-4b6c-b40c-6f22a0e9fa03" x1="0%" y1="0%" x2="100%" y2="0%"><stop data-v-fde0c5aa="" offset="0%" stop-color="#8EFF90" stop-opacity="1"></stop><stop data-v-fde0c5aa="" offset="100%" stop-color="#CEB0FF" stop-opacity="1"></stop></linearGradient></defs><g data-v-fde0c5aa="" id="46450223-b10d-40df-a608-cb12bc8f1b49" stroke="none" fill="url(#40d5b9d5-7483-4b6c-b40c-6f22a0e9fa03)" transform="matrix(2.992254439082659,0,0,2.992254439082659,102.12392897467745,69.18589346201618)"><path d="M29.625 1l-3.099 3.172H4.054v23.657h22.472L29.625 31H1V1h28.625M32 0H0v32h32l-5.054-5.172H5.054V5.172h21.893L32 0z"></path><path d="M21.038 10.962v10.076H10.962V10.962h10.076m1-1H9.962v12.076h12.076V9.962z"></path></g><!----></svg>