<svg data-v-423bf9ae="" xmlns="http://www.w3.org/2000/svg" viewBox="0 0 412 90" class="iconLeft"><!----><!----><!----><g data-v-423bf9ae="" id="652730ca-0f59-4b89-8db5-0aee4a716599" fill="black" transform="matrix(6.1224488604322,0,0,6.1224488604322,115.82114020807947,10.714287480008146)"><path d="M3.91 4.61L3.91 5.59L3.91 9.39L3.91 9.39Q3.91 9.81 3.64 10.12L3.64 10.12L3.64 10.12Q3.37 10.43 2.97 10.50L2.97 10.50L0.94 10.50L0.94 10.50Q0.53 10.43 0.27 10.12L0.27 10.12L0.27 10.12Q0 9.81 0 9.39L0 9.39L0 1.81L0 1.81Q0 1.39 0.27 1.08L0.27 1.08L0.27 1.08Q0.53 0.77 0.94 0.70L0.94 0.70L2.97 0.70L2.97 0.70Q3.37 0.77 3.64 1.08L3.64 1.08L3.64 1.08Q3.91 1.39 3.91 1.81L3.91 1.81L3.91 2.83L2.93 2.83L2.93 1.81L2.93 1.81Q2.93 1.67 2.79 1.67L2.79 1.67L1.12 1.67L1.12 1.67Q0.98 1.67 0.98 1.81L0.98 1.81L0.98 9.39L0.98 9.39Q0.98 9.53 1.12 9.53L1.12 9.53L2.79 9.53L2.79 9.53Q2.93 9.53 2.93 9.39L2.93 9.39L2.93 5.59L1.76 5.59L1.76 4.61L3.91 4.61ZM8.16 10.50L6.92 2.67L6.20 7.20L6.92 7.20L6.92 8.18L6.05 8.18L5.67 10.50L4.68 10.50L5.05 8.18L4.68 8.18L4.68 7.20L5.21 7.20L6.24 0.70L7.59 0.70L9.16 10.50L8.16 10.50ZM13.69 0.70L15.18 0.70L15.18 10.50L14.20 10.50L14.20 3.53L13.10 9.79L11.77 9.79L10.68 3.53L10.68 10.50L9.70 10.50L9.70 0.70L11.20 0.70L12.45 7.95L13.69 0.70ZM19.61 1.68L17.07 1.68L17.07 4.62L19.11 4.62L19.11 5.60L17.07 5.60L17.07 9.52L19.61 9.52L19.61 10.50L16.09 10.50L16.09 4.62L17.07 4.62L16.09 1.68L16.09 0.70L19.61 0.70L19.61 1.68ZM21.46 0.70L23.52 0.70L23.52 0.70Q23.93 0.77 24.19 1.08L24.19 1.08L24.19 1.08Q24.46 1.39 24.46 1.81L24.46 1.81L24.46 9.39L24.46 9.39Q24.46 9.81 24.19 10.12L24.19 10.12L24.19 10.12Q23.93 10.43 23.52 10.50L23.52 10.50L21.46 10.50L21.46 10.50Q21.06 10.43 20.79 10.12L20.79 10.12L20.79 10.12Q20.52 9.81 20.52 9.39L20.52 9.39L20.52 1.81L20.52 1.81Q20.52 1.39 20.79 1.08L20.79 1.08L20.79 1.08Q21.06 0.77 21.46 0.70L21.46 0.70ZM23.48 9.39L23.48 1.81L23.48 1.81Q23.48 1.67 23.35 1.67L23.35 1.67L21.64 1.67L21.64 1.67Q21.50 1.67 21.50 1.81L21.50 1.81L21.50 9.39L21.50 9.39Q21.50 9.53 21.64 9.53L21.64 9.53L23.35 9.53L23.35 9.53Q23.48 9.53 23.48 9.39L23.48 9.39ZM28.31 0.70L29.29 0.70L29.29 10.50L28.31 10.50L28.31 10.50L28.28 10.50L26.35 4.03L26.35 10.50L25.37 10.50L25.37 0.70L26.35 0.70L26.35 0.71L28.31 7.18L28.31 0.70ZM33.54 10.50L32.30 2.67L31.58 7.20L32.30 7.20L32.30 8.18L31.43 8.18L31.05 10.50L30.06 10.50L30.44 8.18L30.06 8.18L30.06 7.20L30.59 7.20L31.63 0.70L32.97 0.70L34.54 10.50L33.54 10.50ZM38.00 0.71L38.98 0.71L38.98 9.39L38.98 9.39Q38.98 9.81 38.72 10.12L38.72 10.12L38.72 10.12Q38.46 10.43 38.05 10.50L38.05 10.50L36.02 10.50L36.02 10.50Q35.62 10.43 35.35 10.12L35.35 10.12L35.35 10.12Q35.08 9.81 35.08 9.39L35.08 9.39L35.08 0.71L36.06 0.71L36.06 9.39L36.06 9.39Q36.06 9.53 36.20 9.53L36.20 9.53L37.87 9.53L37.87 9.53Q38.00 9.53 38.00 9.39L38.00 9.39L38.00 0.71ZM43.61 0.70L43.61 1.68L42.24 1.68L42.24 10.50L41.26 10.50L41.26 1.68L39.89 1.68L39.89 0.70L43.61 0.70ZM48.29 2.86L47.31 2.86L47.31 1.81L47.31 1.81Q47.31 1.67 47.17 1.67L47.17 1.67L45.64 1.67L45.64 1.67Q45.50 1.67 45.50 1.81L45.50 1.81L45.50 4.47L45.50 4.47Q45.50 4.56 45.58 4.59L45.58 4.59L47.17 4.59L47.17 4.59Q47.64 4.59 47.96 4.92L47.96 4.92L47.96 4.92Q48.29 5.25 48.29 5.71L48.29 5.71L48.29 9.39L48.29 9.39Q48.29 9.81 48.02 10.12L48.02 10.12L48.02 10.12Q47.75 10.43 47.35 10.50L47.35 10.50L45.46 10.50L45.46 10.50Q45.05 10.43 44.79 10.12L44.79 10.12L44.79 10.12Q44.52 9.81 44.52 9.39L44.52 9.39L44.52 8.34L45.50 8.34L45.50 9.39L45.50 9.39Q45.50 9.53 45.64 9.53L45.64 9.53L47.17 9.53L47.17 9.53Q47.31 9.53 47.31 9.39L47.31 9.39L47.31 5.71L47.31 5.71Q47.31 5.61 47.22 5.59L47.22 5.59L45.64 5.59L45.64 5.59Q45.18 5.59 44.85 5.26L44.85 5.26L44.85 5.26Q44.52 4.93 44.52 4.47L44.52 4.47L44.52 1.81L44.52 1.81Q44.52 1.39 44.79 1.08L44.79 1.08L44.79 1.08Q45.05 0.77 45.46 0.70L45.46 0.70L47.35 0.70L47.35 0.70Q47.75 0.77 48.02 1.08L48.02 1.08L48.02 1.08Q48.29 1.39 48.29 1.81L48.29 1.81L48.29 2.86Z"></path></g><!----><g data-v-423bf9ae="" id="ea20d72a-5e99-450a-ac80-9996a1f9e434" transform="matrix(2.994410458179972,0,0,2.994410458179972,0.08943266912044834,-1.9385669710569857)" stroke="none" fill="black"><path d="M17.572 23.933l4.106 7.095L32 13.189h-8.981V7.582L11.51.972 0 7.582v13.222l11.51 6.611 6.062-3.482zm10.96-8.744l-6.855 11.846-6.855-11.846h13.71z"></path></g><!----></svg>