<svg width="76" height="74" viewBox="0 0 76 74" fill="none" xmlns="http://www.w3.org/2000/svg">
<path d="M33 0.5H40V26L67.5 0.5L46.5 32H75.5V39.5H46.5L67.5 73L40 46.5V73H33V46.5L3.5 73L26.5 39.5H0.5V32H26.5L3.5 0.5L33 26V0.5Z" fill="#0BE248"/>
<path d="M26.5 32H0.5V39.5H26.5M26.5 32H33V26M26.5 32L3.5 0.5L33 26M33 26V0.5H40V26M40 26V32H46.5M40 26L67.5 0.5L46.5 32M46.5 32H75.5V39.5H46.5M26.5 39.5H33V46.5M26.5 39.5L3.5 73L33 46.5M33 46.5V73H40V46.5M40 46.5V39.5H46.5M40 46.5L67.5 73L46.5 39.5" stroke="black"/>
</svg>
